<svg xmlns="http://www.w3.org/2000/svg" width="16" height="16" viewBox="0 0 16 16">
	<path fill="context-fill" fill-opacity="context-fill-opacity" d="M13.5,6h-3V8H10V6H2.5V8.5H8v1H2.5V12H8v1.5H2.5A1.5,1.5,0,0,1,1,12V4A1.5,1.5,0,0,1,2.5,2.5h11A1.5,1.5,0,0,1,15,4V8H13.5V6Z"/>
	<path fill="#cc4f40" fill-opacity="context-fill-opacity" d="M14.75,16h-4.5A1.25,1.25,0,0,1,9,14.75v-4.5A1.25,1.25,0,0,1,10.25,9h4.5A1.25,1.25,0,0,1,16,10.25v4.5A1.25,1.25,0,0,1,14.75,16ZM14,11.528a0.375,0.375,0,0,0-.53-0.53L12.5,11.97,11.528,11a0.375,0.375,0,0,0-.53.53L11.97,12.5,11,13.472a0.375,0.375,0,0,0,.53.53L12.5,13.03,13.472,14a0.375,0.375,0,0,0,.53-0.53L13.03,12.5Z"/>
</svg>